# xmcd
#
# Track frame offsets:
#	150
#	16957
#	34877
#	49925
#	70075
#	86580
#	105547
#	124295
#	138057
#	155637
#
# Disc length: 2338 seconds
# Revision: 0
# Processed by: cddbd v1.5.2PL0 Copyright (c) Steve Scherf et al.
# Submitted via: dBpowerAMP V12.0
#
DISCID=8109200a
DTITLE=Five Finger Death Punch - The Way of the Fist
DYEAR=2007
DGENRE=Thrash Metal
TTITLE0=Ashes
TTITLE1=The Way of the Fist
TTITLE2=Salvation
TTITLE3=The Bleeding
TTITLE4=A Place to Die
TTITLE5=The Devil's Own
TTITLE6=White Knuckles
TTITLE7=Can't Heal You
TTITLE8=Death Before Dishonor
TTITLE9=Meet the Monster
EXTD=
EXTT0=
EXTT1=
EXTT2=
EXTT3=
EXTT4=
EXTT5=
EXTT6=
EXTT7=
EXTT8=
EXTT9=
PLAYORDER=
